PathFileType	4	(X/Y/Z)	/Users/itak/Documents/Research/Walk-IL/dataset/trc/00289_00010.trc
DataRate	CameraRate	NumFrames	NumMarkers	Units	OrigDataRate	OrigDataStartFrame	OrigNumFrames
100.000000	100.000000	4	53	mm	100.000000	413	662
Frame#	Time	RPSI			LPSI			L3			STRN			T10			C7			CLAV			RBAK			LBAK			LSHO			LUPA			LAEL			LAOL			LWTS			LWPS			LFRA			LIFD			LHPS			LHTS			RSHO			RUPA			RAEL			RAOL			RWTS			RWPS			RFRA			RIFD			RHTS			RHPS			RBHD			LFHD			RFHD			LBHD			LHIP			RHIP			RASI			LASI			LKNE			LTHI			LANK			LTIP			LTOE			LMT1			LMT5			LHEE			RKNE			RTHI			RANK			RTIP			RTOE			RMT1			RMT5			RHEE			
		X1	Y1	Z1	X2	Y2	Z2	X3	Y3	Z3	X4	Y4	Z4	X5	Y5	Z5	X6	Y6	Z6	X7	Y7	Z7	X8	Y8	Z8	X9	Y9	Z9	X10	Y10	Z10	X11	Y11	Z11	X12	Y12	Z12	X13	Y13	Z13	X14	Y14	Z14	X15	Y15	Z15	X16	Y16	Z16	X17	Y17	Z17	X18	Y18	Z18	X19	Y19	Z19	X20	Y20	Z20	X21	Y21	Z21	X22	Y22	Z22	X23	Y23	Z23	X24	Y24	Z24	X25	Y25	Z25	X26	Y26	Z26	X27	Y27	Z27	X28	Y28	Z28	X29	Y29	Z29	X30	Y30	Z30	X31	Y31	Z31	X32	Y32	Z32	X33	Y33	Z33	X34	Y34	Z34	X35	Y35	Z35	X36	Y36	Z36	X37	Y37	Z37	X38	Y38	Z38	X39	Y39	Z39	X40	Y40	Z40	X41	Y41	Z41	X42	Y42	Z42	X43	Y43	Z43	X44	Y44	Z44	X45	Y45	Z45	X46	Y46	Z46	X47	Y47	Z47	X48	Y48	Z48	X49	Y49	Z49	X50	Y50	Z50	X51	Y51	Z51	X52	Y52	Z52	X53	Y53	Z53	

414	4.13	329.498291015625	950.9912719726562	-393.7162475585938	470.9605712890625	956.4037475585938	-497.5774841308594	399.1594848632812	1023.747253417969	-427.3453979492188	560.252197265625	1195.14208984375	-246.3729553222656	378.6673583984375	1136.039672851562	-438.4731750488281	427.1750793457031	1379.781982421875	-418.4627380371094	525.4165649414062	1295.777709960938	-297.4819946289062	327.8837280273438	1247.632446289062	-406.7858581542969	490.7760620117188	1338.198486328125	-498.7540893554688	590.986572265625	1342.440185546875	-469.9244384765625	606.1092529296875	1234.885375976562	-559.355224609375	584.1690063476562	1043.090942382812	-610.242431640625	499.2965393066406	1035.041381835938	-589.7621459960938	577.7694702148438	799.9971923828125	-600.4890747070312	580.380126953125	812.931884765625	-672.564208984375	580.8076782226562	942.4552612304688	-642.35498046875	536.0664672851562	630.5932006835938	-668.771728515625	560.2310791015625	732.101806640625	-698.9353637695312	579.9425659179688	703.9625244140625	-641.1273803710938	350.4075927734375	1366.212890625	-264.6952209472656	293.6916809082031	1307.958984375	-224.839599609375	252.8244781494141	1040.885375976562	-185.7411651611328	284.7609252929688	1028.958740234375	-274.8846435546875	434.8157958984375	884.3103637695312	-133.3442993164062	362.8818359375	853.5708618164062	-98.41034698486328	282.6197814941406	985.4054565429688	-153.0565338134766	517.9953002929688	724.8110961914062	-83.92551422119141	491.7124328613281	795.4241943359375	-77.55101013183594	428.3540649414062	766.5960083007812	-65.71018218994141	422.3414001464844	1549.5224609375	-371.8430480957031	588.5367431640625	1550.222290039062	-239.1262969970703	500.2898559570312	1555.561157226562	-212.272216796875	561.583740234375	1532.432495117188	-412.9593505859375	594.8103637695312	922.2015991210938	-496.9067687988281	303.9050903320312	884.568115234375	-257.6797180175781	430.8139038085938	890.2193603515625	-197.6412353515625	628.2227172851562	923.7271728515625	-353.7186279296875	716.2779541015625	495.7205505371094	-295.6227111816406	697.268798828125	623.7067260742188	-360.7335815429688	749.2409057617188	34.63522720336914	-317.2363891601562	745.671875	263.5372619628906	-303.4595336914062	733.5631713867188	50.6999397277832	-105.4305038452148	680.684814453125	32.36742782592773	-161.488037109375	786.3002319335938	38.23259735107422	-199.5458374023438	681.571533203125	29.97287940979004	-348.5608215332031	325.9167785644531	434.1031799316406	-390.1355895996094	337.5265502929688	669.5962524414062	-267.5589599609375	169.9140319824219	93.00839996337891	-645.890625	311.8850708007812	321.9232482910156	-453.6454467773438	352.7044677734375	39.04601669311523	-682.3198852539062	309.12841796875	64.54930877685547	-721.623291015625	257.4945983886719	35.91477966308594	-618.5950317382812	139.3313140869141	132.8174591064453	-695.2772216796875	
415	4.14	337.546875	951.7529296875	-385.8729248046875	479.8794250488281	958.6072998046875	-488.1096801757812	408.2805786132812	1024.407958984375	-418.6590576171875	567.6111450195312	1196.831909179688	-237.0684967041016	387.7893676757812	1136.582641601562	-430.8269958496094	436.2254028320312	1380.443359375	-412.1097412109375	533.2081909179688	1297.164672851562	-289.2921752929688	336.6165466308594	1248.37548828125	-400.6607360839844	500.6968994140625	1338.092163085938	-491.2713623046875	600.5573120117188	1342.73486328125	-461.2642517089844	617.2303466796875	1234.5849609375	-549.7493896484375	597.6361694335938	1042.483764648438	-599.8411865234375	512.6546630859375	1033.65087890625	-580.2879028320312	593.4682006835938	799.4990844726562	-589.2047119140625	596.6451416015625	812.2974243164062	-661.2766723632812	595.5528564453125	941.7308959960938	-631.5509643554688	553.6467895507812	629.1842651367188	-657.5762939453125	577.5120849609375	731.211181640625	-687.7023315429688	596.7421875	703.1709594726562	-629.5829467773438	357.6484375	1367.73681640625	-258.974853515625	300.1737365722656	1309.511962890625	-219.6112823486328	260.9395141601562	1041.835327148438	-182.7269287109375	294.6846313476562	1030.713623046875	-271.0338439941406	435.0641479492188	876.4871215820312	-127.7836532592773	360.3445739746094	848.4343872070312	-96.18873596191406	287.8060607910156	984.5697021484375	-150.0343933105469	507.3341674804688	711.8922119140625	-78.04576110839844	484.8472290039062	783.660888671875	-71.66741180419922	419.5137023925781	758.107666015625	-63.04861831665039	430.4271850585938	1550.66162109375	-366.2062377929688	595.2560424804688	1551.815185546875	-231.7552185058594	506.7316589355469	1557.079711914062	-205.8306579589844	570.0956420898438	1533.69921875	-405.8389892578125	604.0858764648438	925.031494140625	-485.8363342285156	310.3544006347656	884.5596313476562	-250.4607238769531	436.6107788085938	891.1236572265625	-189.6529083251953	636.0930786132812	925.4850463867188	-342.3592834472656	723.2445678710938	496.2420959472656	-286.9197692871094	705.7174682617188	625.682373046875	-350.6505126953125	750.5885620117188	34.16995620727539	-317.2908020019531	750.4490966796875	263.4274597167969	-298.3655090332031	734.0545654296875	47.53963851928711	-105.0619354248047	681.2035522460938	31.56709861755371	-161.7312469482422	787.3934936523438	36.35149383544922	-199.4931488037109	682.9032592773438	30.62601280212402	-348.9037170410156	335.8860778808594	432.8468933105469	-378.6940002441406	345.3802490234375	669.4352416992188	-259.27392578125	175.1300201416016	99.58110809326172	-643.2349243164062	318.8306579589844	322.3035888671875	-443.0684204101562	354.1798706054688	38.8348503112793	-680.3346557617188	313.5210266113281	67.98379516601562	-718.1306762695312	258.5371704101562	35.80243682861328	-618.4393310546875	148.4278564453125	143.3713684082031	-691.10693359375	
416	4.15	345.4781799316406	952.6852416992188	-378.6309509277344	488.9682006835938	960.94287109375	-478.8368225097656	417.1617126464844	1025.5078125	-410.3298034667969	574.5830688476562	1198.761962890625	-227.5658569335938	396.796630859375	1137.4560546875	-423.2815856933594	445.1681518554688	1381.3447265625	-405.5974426269531	540.671142578125	1298.809204101562	-280.9269104003906	345.2504272460938	1249.411743164062	-394.5075378417969	510.5890808105469	1338.294189453125	-483.5480041503906	610.03173828125	1343.345703125	-452.2552795410156	628.3818969726562	1234.67724609375	-539.7777709960938	611.15576171875	1042.259155273438	-589.0228881835938	526.0872192382812	1032.681884765625	-570.5382690429688	609.36865234375	799.4249877929688	-577.2332763671875	613.229248046875	811.9683227539062	-649.3104248046875	610.4614868164062	941.3563232421875	-620.2346801757812	571.5635986328125	628.067138671875	-645.372802734375	595.12744140625	730.4927368164062	-675.6204833984375	613.8341064453125	702.754150390625	-617.1593017578125	364.6678771972656	1369.52197265625	-253.2156677246094	306.412109375	1311.406494140625	-214.3203582763672	268.8138427734375	1043.199462890625	-179.3867034912109	304.1792602539062	1032.809814453125	-266.9054870605469	434.7404479980469	869.2562255859375	-122.4927291870117	357.353515625	844.136962890625	-94.31901550292969	292.67236328125	984.2304077148438	-146.8687286376953	495.2424926757812	699.7913818359375	-73.11815643310547	476.9396362304688	772.5891723632812	-66.48735809326172	409.8715515136719	750.6577758789062	-61.07329559326172	438.3496704101562	1551.941650390625	-360.4917297363281	601.85400390625	1553.681640625	-224.3538513183594	513.0597534179688	1558.906860351562	-199.3399047851562	578.4481811523438	1535.054443359375	-398.6361694335938	613.3911743164062	927.9163208007812	-474.8572998046875	316.3654479980469	884.9168701171875	-243.7598114013672	441.9157104492188	892.426513671875	-181.9726867675781	643.646728515625	927.3484497070312	-331.0571594238281	729.4498901367188	496.3624572753906	-279.4002990722656	713.4452514648438	627.1837158203125	-341.5267944335938	751.6414794921875	33.81868362426758	-317.3563232421875	754.4743041992188	263.1568908691406	-294.2062072753906	734.31640625	45.06095504760742	-104.8063278198242	681.571044921875	31.06729888916016	-161.9701538085938	788.1943359375	35.10514068603516	-199.5314331054688	683.977294921875	31.09122467041016	-349.1864624023438	345.7646179199219	431.6065368652344	-366.1010131835938	352.9654235839844	669.5576782226562	-250.7697601318359	181.2162780761719	106.8238296508789	-639.7352294921875	325.8725280761719	322.8919372558594	-431.368896484375	356.1454467773438	38.51890182495117	-677.4553833007812	318.8057250976562	71.72379302978516	-713.6227416992188	259.6834411621094	36.30358505249023	-617.9462280273438	158.645263671875	154.4378509521484	-685.80078125	
417	4.16	353.2870483398438	953.7344970703125	-372.0494384765625	498.185546875	963.3651123046875	-469.8329772949219	425.8103332519531	1027.003051757812	-402.4205322265625	581.0985107421875	1200.84326171875	-217.9170684814453	405.6981506347656	1138.624389648438	-415.8912658691406	453.9848327636719	1382.461791992188	-398.9273376464844	547.7772216796875	1300.65478515625	-272.397216796875	353.7859191894531	1250.697509765625	-388.36767578125	520.45458984375	1338.806762695312	-475.5958557128906	619.4038696289062	1344.248657226562	-442.8925476074219	639.5752563476562	1235.136596679688	-529.4398193359375	624.7196044921875	1042.40087890625	-577.7960815429688	539.5784301757812	1032.102294921875	-560.5267944335938	625.4423217773438	799.7594604492188	-564.592041015625	630.0592651367188	811.9288940429688	-636.682861328125	625.49072265625	941.304931640625	-608.421142578125	589.8787841796875	627.2991333007812	-632.19970703125	613.0313110351562	729.9524536132812	-662.7077026367188	631.24072265625	702.7618408203125	-603.9075317382812	371.4330444335938	1371.503662109375	-247.4410858154297	312.4027099609375	1313.559936523438	-209.0090789794922	276.2711486816406	1044.935424804688	-175.629150390625	312.9850463867188	1035.153930664062	-262.4754028320312	433.843017578125	862.7206420898438	-117.5085525512695	353.994140625	840.7392578125	-92.69295501708984	297.1379699707031	984.3717041015625	-143.4826354980469	481.9797058105469	688.7562255859375	-69.31430816650391	468.1819152832031	762.3954467773438	-62.12102127075195	399.6588745117188	744.3748168945312	-59.75143814086914	446.0994873046875	1553.326293945312	-354.6814270019531	608.3215942382812	1555.792846679688	-216.9070281982422	519.2689208984375	1561.012573242188	-192.7820129394531	586.6293334960938	1536.4619140625	-391.3357849121094	622.6828002929688	930.7997436523438	-464.0294494628906	321.9453125	885.5942993164062	-237.6316833496094	446.7503051757812	894.0374755859375	-174.6301116943359	650.8753662109375	929.224365234375	-319.9093017578125	734.8158569335938	496.1237182617188	-272.9391479492188	720.3541259765625	628.1687622070312	-333.3239440917969	752.388427734375	33.59413909912109	-317.3905334472656	757.732177734375	262.760009765625	-290.8830261230469	734.3170166015625	43.07424926757812	-104.5730133056641	681.74462890625	30.70502853393555	-162.1619262695312	788.671630859375	34.33430480957031	-199.5621490478516	684.7775268554688	31.41228103637695	-349.3927001953125	355.5392150878906	430.4568481445312	-352.4718322753906	360.2369384765625	669.9573364257812	-242.1039886474609	188.2350463867188	114.788818359375	-635.1864624023438	333.1642456054688	323.6680297851562	-418.6300659179688	358.7471618652344	38.07549285888672	-673.3313598632812	325.0570068359375	75.71798706054688	-707.846923828125	261.0798645019531	37.74082565307617	-616.781982421875	169.9186706542969	165.8484191894531	-679.2733154296875	
